<?xml version="1.0" encoding="UTF-8" standalone="no"?>
<!-- Created with Inkscape (http://www.inkscape.org/) -->

<svg
   xmlns:dc="http://purl.org/dc/elements/1.1/"
   xmlns:cc="http://creativecommons.org/ns#"
   xmlns:rdf="http://www.w3.org/1999/02/22-rdf-syntax-ns#"
   xmlns:svg="http://www.w3.org/2000/svg"
   xmlns="http://www.w3.org/2000/svg"
   xmlns:sodipodi="http://sodipodi.sourceforge.net/DTD/sodipodi-0.dtd"
   xmlns:inkscape="http://www.inkscape.org/namespaces/inkscape"
   width="45.37056mm"
   height="45.685844mm"
   viewBox="0 0 160.76183 161.87898"
   id="svg3406"
   version="1.1"
   inkscape:version="0.91 r13725"
   sodipodi:docname="beans.svg">
  <defs
     id="defs3408" />
  <sodipodi:namedview
     id="base"
     pagecolor="#ffffff"
     bordercolor="#666666"
     borderopacity="1.0"
     inkscape:pageopacity="0.0"
     inkscape:pageshadow="2"
     inkscape:zoom="0.35"
     inkscape:cx="-236.04765"
     inkscape:cy="98.082347"
     inkscape:document-units="px"
     inkscape:current-layer="layer1"
     showgrid="false"
     borderlayer="true"
     inkscape:showpageshadow="false"
     fit-margin-left="3"
     fit-margin-top="3"
     fit-margin-right="3"
     fit-margin-bottom="3"
     inkscape:window-width="1600"
     inkscape:window-height="836"
     inkscape:window-x="0"
     inkscape:window-y="27"
     inkscape:window-maximized="1" />
  <metadata
     id="metadata3411">
    <rdf:RDF>
      <cc:Work
         rdf:about="">
        <dc:format>image/svg+xml</dc:format>
        <dc:type
           rdf:resource="http://purl.org/dc/dcmitype/StillImage" />
        <dc:title></dc:title>
      </cc:Work>
    </rdf:RDF>
  </metadata>
  <g
     inkscape:label="Layer 1"
     inkscape:groupmode="layer"
     id="layer1"
     transform="translate(-96.761939,-468.56557)">
    <g
       id="g4958"
       transform="translate(-197.20173,-125.92427)">
      <path
         inkscape:connector-curvature="0"
         id="path4416"
         d="m 337.60647,684.42003 a 27.560838,20.545353 58.252283 0 0 -1.20654,0.82997 c 0.43066,0.35369 0.89173,1.68344 1.39152,3.98923 1.60582,7.40877 4.46584,11.09376 10.32172,13.29466 19.13414,7.19145 21.17663,8.81987 21.68227,17.2948 0.21857,3.66304 -1.09852,9.25564 -2.22604,10.80703 a 27.560838,20.545353 58.252283 0 0 2.01061,-33.58927 27.560838,20.545353 58.252283 0 0 -31.97354,-12.62643 z m -2.09606,1.60299 a 27.560838,20.545353 58.252283 0 0 -0.873,32.64465 27.560838,20.545353 58.252283 0 0 31.97318,12.62665 27.560838,20.545353 58.252283 0 0 0.35997,-0.24741 c -0.118,-0.0192 -0.22884,-0.10977 -0.32966,-0.28346 -0.33468,-0.57649 -0.72537,-2.58119 -0.86761,-4.4541 -0.51651,-6.80208 -3.77598,-9.852 -15.56479,-14.57354 -9.38866,-3.76024 -11.58593,-5.16187 -13.85434,-8.82791 -2.10442,-3.40102 -2.52796,-5.79632 -1.92951,-10.91713 0.34359,-2.93992 0.70294,-4.92364 1.08575,-5.96778 z"
         style="opacity:1;fill:#0e8684;fill-opacity:1;stroke:none;stroke-width:2;stroke-linecap:round;stroke-linejoin:round;stroke-miterlimit:4;stroke-dasharray:none;stroke-dashoffset:0;stroke-opacity:1" />
      <path
         style="opacity:1;fill:#0e8684;fill-opacity:1;stroke:none;stroke-width:2;stroke-linecap:round;stroke-linejoin:round;stroke-miterlimit:4;stroke-dasharray:none;stroke-dashoffset:0;stroke-opacity:1"
         d="m 404.53007,655.38938 a 20.785448,27.882917 13.46647 0 0 -1.45585,-0.27483 c 0.053,0.56129 -0.57323,1.84006 -1.87271,3.84225 -4.1753,6.43322 -4.78299,11.11308 -2.18989,16.88639 8.473,18.86434 8.75939,21.49149 3.03442,27.89457 -2.47444,2.76755 -7.42883,5.80763 -9.34636,6.10367 a 20.785448,27.882917 13.46647 0 0 25.55135,-22.49505 20.785448,27.882917 13.46647 0 0 -13.72096,-31.95701 z m -2.64485,-0.36261 a 20.785448,27.882917 13.46647 0 0 -24.06234,22.63869 20.785448,27.882917 13.46647 0 0 13.72056,31.95691 20.785448,27.882917 13.46647 0 0 0.43421,0.0822 c -0.0703,-0.0984 -0.0843,-0.24255 -0.0314,-0.43873 0.17542,-0.65117 1.33643,-2.36042 2.57988,-3.79737 4.51606,-5.21866 4.38302,-9.73273 -0.62851,-21.56257 -3.99121,-9.4213 -4.55075,-11.99797 -3.53506,-16.23953 0.94226,-3.93495 2.36031,-5.94616 6.46379,-9.166 2.35584,-1.84855 4.03633,-3.0043 5.05889,-3.47358 z"
         id="path4419"
         inkscape:connector-curvature="0" />
      <path
         style="opacity:1;fill:#0e8684;fill-opacity:1;stroke:none;stroke-width:2;stroke-linecap:round;stroke-linejoin:round;stroke-miterlimit:4;stroke-dasharray:none;stroke-dashoffset:0;stroke-opacity:1"
         d="m 355.18422,617.29336 a 29.323972,21.85969 83.467838 0 1 1.55479,-0.10207 c -0.12657,0.57926 0.36483,1.99379 1.46723,4.24905 3.54214,7.24635 3.58236,12.20925 0.14214,17.90726 -11.24093,18.61836 -11.87349,21.32472 -6.7097,28.73636 2.23189,3.20348 7.01823,7.00636 8.98251,7.5589 a 29.323972,21.85969 83.467838 0 1 -23.81913,-26.7289 29.323972,21.85969 83.467838 0 1 18.38216,-31.62061 z m 2.80725,-0.0427 a 29.323972,21.85969 83.467838 0 1 22.24635,26.68978 29.323972,21.85969 83.467838 0 1 -18.3817,31.62055 29.323972,21.85969 83.467838 0 1 -0.46374,0.0306 c 0.0859,-0.0939 0.11876,-0.24253 0.0885,-0.45404 -0.10047,-0.7021 -1.09552,-2.63396 -2.21123,-4.29199 -4.0521,-6.02164 -3.34005,-10.71739 3.39398,-22.4313 5.36302,-9.32898 6.27433,-11.94795 5.75253,-16.50504 -0.4841,-4.22769 -1.70917,-6.50743 -5.58432,-10.38993 -2.22477,-2.22898 -3.83244,-3.64895 -4.8404,-4.26872 z"
         id="path4421"
         inkscape:connector-curvature="0" />
    </g>
  </g>
</svg>
